<?xml version="1.0" encoding="UTF-8"?>
<svg xmlns="http://www.w3.org/2000/svg" viewBox="0 0 1200 630" width="1200" height="630">
  <defs>
    <linearGradient id="g2953" x1="87.15724127386972%" y1="16.54346968205708%" x2="12.842758726130292%" y2="83.45653031794292%">
      <stop offset="0%" stop-color="#8B5CF6"/>
      <stop offset="100%" stop-color="#7C3AED"/>
    </linearGradient>
  </defs>
  <rect width="1200" height="630" fill="url(#g2953)"/>
  <polygon points="297.25062639452517,233.07071538176388 367.25062639452517,193.07071538176388 437.25062639452517,233.07071538176388 367.25062639452517,273.0707153817639" fill="rgba(255,255,255,0.08)" stroke="rgba(255,255,255,0.15)" stroke-width="2"/><line x1="427.25062639452517" y1="238.07071538176388" x2="427.25062639452517" y2="293.0707153817639" stroke="rgba(255,255,255,0.12)" stroke-width="2"/><path d="M 932.1309318765998 364.7041998291388 C 902.1309318765998 354.7041998291388 852.1309318765998 359.7041998291388 842.1309318765998 294.7041998291388 L 932.1309318765998 304.7041998291388 L 1022.1309318765998 294.7041998291388 C 1012.1309318765998 359.7041998291388 962.1309318765998 354.7041998291388 932.1309318765998 364.7041998291388 Z" fill="rgba(255,255,255,0.06)" stroke="rgba(255,255,255,0.12)" stroke-width="1.5"/><line x1="932.1309318765998" y1="364.7041998291388" x2="932.1309318765998" y2="304.7041998291388" stroke="rgba(255,255,255,0.12)" stroke-width="1.5"/><rect x="206.30181895103306" y="366.2688874453306" width="8" height="100" rx="1" fill="rgba(255,255,255,0.1)" transform="rotate(41.43520151730627 206.30181895103306 366.2688874453306)"/><circle cx="993.5666852979921" cy="162.16181283816695" r="30" fill="none" stroke="rgba(255,255,255,0.12)" stroke-width="2"/><line x1="983.5666852979921" y1="192.16181283816695" x2="1003.5666852979921" y2="192.16181283816695" stroke="rgba(255,255,255,0.1)" stroke-width="2"/><line x1="985.5666852979921" y1="199.16181283816695" x2="1001.5666852979921" y2="199.16181283816695" stroke="rgba(255,255,255,0.1)" stroke-width="2"/><circle cx="426.3906182022765" cy="575.071779130958" r="5.161669325083494" fill="rgba(255,255,255,0.10324956392869353)"/><circle cx="1031.2109608901665" cy="554.6640477771871" r="5.031478592194617" fill="rgba(255,255,255,0.06883639115840197)"/><circle cx="650.9058467345312" cy="569.5270207943395" r="4.032283442094922" fill="rgba(255,255,255,0.07816068818792701)"/><circle cx="973.9322434179485" cy="552.1795688988641" r="3.628424850292504" fill="rgba(255,255,255,0.04332867775112391)"/><circle cx="198.945301072672" cy="119.60220703855157" r="2.4568024184554815" fill="rgba(255,255,255,0.06836829911917448)"/><circle cx="429.72962562926114" cy="522.9562195832841" r="2.224795026704669" fill="rgba(255,255,255,0.046131124924868344)"/><circle cx="608.6230763001367" cy="404.70719823613763" r="3.1948342425748706" fill="rgba(255,255,255,0.059872622974216944)"/><circle cx="1084.566238662228" cy="481.2339799432084" r="4.153293843381107" fill="rgba(255,255,255,0.06959026550874114)"/><circle cx="499.15520288050175" cy="199.0795777295716" r="5.043619665317237" fill="rgba(255,255,255,0.09093570630997419)"/><circle cx="1111.5670148050413" cy="327.10329679306597" r="2.784006467089057" fill="rgba(255,255,255,0.11110473573207855)"/><circle cx="334.19576985761523" cy="61.65715358685702" r="3.986347592435777" fill="rgba(255,255,255,0.06478551890701056)"/><circle cx="1124.3743319064379" cy="385.8519870345481" r="4.592312534339726" fill="rgba(255,255,255,0.09323319621384143)"/><circle cx="823.1580195017159" cy="273.29804291715845" r="2.5916105350479484" fill="rgba(255,255,255,0.10927609564736485)"/><circle cx="986.2272375728935" cy="335.9418104356155" r="3.9433797765523195" fill="rgba(255,255,255,0.09644586930051446)"/><circle cx="324.60142688360065" cy="131.91456790314987" r="4.139213207177818" fill="rgba(255,255,255,0.06722812328487635)"/>
  <circle cx="232.6174708083272" cy="372.2971728723496" r="2.6443245909176767" fill="rgba(255,255,255,0.045023668436333535)"/><circle cx="959.5737936906517" cy="290.61281837755814" r="2.339133615605533" fill="rgba(255,255,255,0.039464413742534815)"/><circle cx="585.2041030302644" cy="396.58473775489256" r="1.9540856624953449" fill="rgba(255,255,255,0.05321706226794049)"/><circle cx="1030.0261144526303" cy="585.2923187473789" r="1.5571950995363295" fill="rgba(255,255,255,0.07514779585879297)"/><circle cx="584.3420871533453" cy="440.2100013848394" r="1.9714851309545338" fill="rgba(255,255,255,0.04621940416516736)"/><circle cx="1197.5853097625077" cy="427.4760239222087" r="1.0836287592537701" fill="rgba(255,255,255,0.04303091672016308)"/><circle cx="784.9944359622896" cy="69.58449717611074" r="1.6618760065175593" fill="rgba(255,255,255,0.03976875217165798)"/><circle cx="1051.7092167399824" cy="528.1155014340766" r="1.9687993633560836" fill="rgba(255,255,255,0.05201131053734571)"/><circle cx="102.79799876734614" cy="302.08769876277074" r="2.98346480820328" fill="rgba(255,255,255,0.04256891869707033)"/><circle cx="201.06654670089483" cy="99.32666955515742" r="1.3224662942811847" fill="rgba(255,255,255,0.032380087669007476)"/><circle cx="355.11196134611964" cy="142.7368621621281" r="1.3498498694971204" fill="rgba(255,255,255,0.04742681446485221)"/><circle cx="748.8115732558072" cy="125.97837005043402" r="2.5762237021699548" fill="rgba(255,255,255,0.05959200695622713)"/><circle cx="489.1406608745456" cy="300.0550790084526" r="2.8940693004988134" fill="rgba(255,255,255,0.04184024144895375)"/><circle cx="1122.6729970425367" cy="12.421677557285875" r="1.4406378287822008" fill="rgba(255,255,255,0.07927855258574709)"/><circle cx="1011.6642979905009" cy="495.0669695623219" r="2.9488498312421143" fill="rgba(255,255,255,0.0378306813375093)"/><circle cx="242.119297105819" cy="118.55333872139454" r="2.633721903897822" fill="rgba(255,255,255,0.05170688947662711)"/><circle cx="1004.2233184911311" cy="290.1202250341885" r="2.193376420997083" fill="rgba(255,255,255,0.030378396920859814)"/><circle cx="449.75668201223016" cy="82.7236855099909" r="2.520907557569444" fill="rgba(255,255,255,0.030530902063474058)"/><circle cx="984.6983190625906" cy="292.25080430042" r="1.9197582020424306" fill="rgba(255,255,255,0.06688967081252487)"/><circle cx="362.9671750590205" cy="479.7136683133431" r="1.9461166034452617" fill="rgba(255,255,255,0.06970341890817508)"/>
  <text x="600" y="335" font-family="system-ui, -apple-system, 'Segoe UI', sans-serif" font-size="68" font-weight="700" fill="rgba(0,0,0,0.15)" text-anchor="middle" letter-spacing="1">Praxis Core</text>
  <text x="600" y="332" font-family="system-ui, -apple-system, 'Segoe UI', sans-serif" font-size="68" font-weight="700" fill="white" text-anchor="middle" letter-spacing="1">Praxis Core</text>
  <g transform="translate(1140, 575)">
    <rect x="0" y="0" width="40" height="40" rx="8" fill="rgba(255,255,255,0.15)"/>
    <text x="20" y="29" font-family="sans-serif" font-weight="bold" font-size="24" fill="rgba(255,255,255,0.6)" text-anchor="middle">K</text>
  </g>
</svg>